<svg width="337" height="95" viewBox="0 0 337 95" fill="none" xmlns="http://www.w3.org/2000/svg">
<path d="M161.719 82.5151C161.199 82.5151 160.747 82.4151 160.363 82.2151C159.987 82.0071 159.687 81.7311 159.463 81.3871C159.247 81.0431 159.115 80.6671 159.067 80.2591H160.003C160.083 80.6991 160.275 81.0391 160.579 81.2791C160.883 81.5191 161.267 81.6391 161.731 81.6391C162.155 81.6391 162.527 81.5151 162.847 81.2671C163.175 81.0111 163.439 80.6231 163.639 80.1031C163.839 79.5831 163.955 78.9271 163.987 78.1351C163.987 78.0951 163.987 78.0631 163.987 78.0391C163.987 78.0071 163.987 77.9711 163.987 77.9311C163.875 78.1871 163.703 78.4231 163.471 78.6391C163.247 78.8471 162.975 79.0191 162.655 79.1551C162.343 79.2831 161.987 79.3471 161.587 79.3471C161.123 79.3471 160.683 79.2351 160.267 79.0111C159.851 78.7871 159.515 78.4751 159.259 78.0751C159.003 77.6671 158.875 77.1911 158.875 76.6471C158.875 76.1751 158.991 75.7231 159.223 75.2911C159.455 74.8591 159.783 74.5071 160.207 74.2351C160.631 73.9631 161.135 73.8271 161.719 73.8271C162.327 73.8271 162.835 73.9391 163.243 74.1631C163.659 74.3871 163.991 74.6911 164.239 75.0751C164.487 75.4591 164.667 75.8911 164.779 76.3711C164.891 76.8431 164.947 77.3311 164.947 77.8351C164.947 78.7551 164.819 79.5671 164.563 80.2711C164.315 80.9751 163.951 81.5271 163.471 81.9271C162.991 82.3191 162.407 82.5151 161.719 82.5151ZM161.791 78.4711C162.159 78.4711 162.491 78.3871 162.787 78.2191C163.083 78.0511 163.315 77.8271 163.483 77.5471C163.651 77.2591 163.735 76.9391 163.735 76.5871C163.735 76.2191 163.651 75.8951 163.483 75.6151C163.315 75.3271 163.083 75.1071 162.787 74.9551C162.491 74.7951 162.159 74.7151 161.791 74.7151C161.431 74.7151 161.107 74.7951 160.819 74.9551C160.539 75.1151 160.315 75.3351 160.147 75.6151C159.979 75.8951 159.895 76.2231 159.895 76.5991C159.895 76.9751 159.979 77.3031 160.147 77.5831C160.315 77.8631 160.539 78.0831 160.819 78.2431C161.107 78.3951 161.431 78.4711 161.791 78.4711ZM169.742 82.3711V73.9711H174.938V74.7991H170.75V77.7271H174.578V78.5431H170.75V81.5431H174.938V82.3711H169.742ZM176.479 82.3711V76.2151H177.391L177.451 77.0791C177.643 76.7671 177.899 76.5231 178.219 76.3471C178.547 76.1631 178.899 76.0711 179.275 76.0711C179.587 76.0711 179.867 76.1151 180.115 76.2031C180.363 76.2831 180.579 76.4111 180.763 76.5871C180.955 76.7551 181.111 76.9711 181.231 77.2351C181.439 76.8591 181.723 76.5711 182.083 76.3711C182.443 76.1711 182.827 76.0711 183.235 76.0711C183.699 76.0711 184.099 76.1631 184.435 76.3471C184.779 76.5311 185.043 76.8111 185.227 77.1871C185.419 77.5631 185.515 78.0351 185.515 78.6031V82.3711H184.519V78.7111C184.519 78.1191 184.395 77.6751 184.147 77.3791C183.899 77.0831 183.551 76.9351 183.103 76.9351C182.807 76.9351 182.535 77.0151 182.287 77.1751C182.047 77.3351 181.855 77.5711 181.711 77.8831C181.567 78.1871 181.495 78.5591 181.495 78.9991V82.3711H180.487V78.7111C180.487 78.1191 180.363 77.6751 180.115 77.3791C179.867 77.0831 179.527 76.9351 179.095 76.9351C178.799 76.9351 178.527 77.0151 178.279 77.1751C178.039 77.3351 177.847 77.5711 177.703 77.8831C177.559 78.1871 177.487 78.5591 177.487 78.9991V82.3711H176.479ZM189.82 82.5151C189.244 82.5151 188.732 82.3831 188.284 82.1191C187.836 81.8551 187.484 81.4831 187.228 81.0031C186.98 80.5151 186.856 79.9471 186.856 79.2991C186.856 78.6431 186.984 78.0751 187.24 77.5951C187.496 77.1151 187.848 76.7431 188.296 76.4791C188.752 76.2071 189.268 76.0711 189.844 76.0711C190.42 76.0711 190.932 76.2071 191.38 76.4791C191.828 76.7431 192.176 77.1151 192.424 77.5951C192.68 78.0751 192.808 78.6431 192.808 79.2991C192.808 79.9471 192.68 80.5151 192.424 81.0031C192.168 81.4831 191.812 81.8551 191.356 82.1191C190.908 82.3831 190.396 82.5151 189.82 82.5151ZM189.82 81.6511C190.18 81.6511 190.508 81.5631 190.804 81.3871C191.1 81.2111 191.336 80.9471 191.512 80.5951C191.688 80.2431 191.776 79.8111 191.776 79.2991C191.776 78.7711 191.688 78.3351 191.512 77.9911C191.344 77.6391 191.112 77.3751 190.816 77.1991C190.52 77.0231 190.196 76.9351 189.844 76.9351C189.492 76.9351 189.168 77.0231 188.872 77.1991C188.576 77.3751 188.336 77.6391 188.152 77.9911C187.976 78.3351 187.888 78.7711 187.888 79.2991C187.888 79.8111 187.976 80.2431 188.152 80.5951C188.328 80.9471 188.56 81.2111 188.848 81.3871C189.144 81.5631 189.468 81.6511 189.82 81.6511ZM196.422 82.3711C196.062 82.3711 195.75 82.3151 195.486 82.2031C195.222 82.0911 195.018 81.9031 194.874 81.6391C194.738 81.3671 194.67 81.0031 194.67 80.5471V77.0671H193.59V76.2151H194.67L194.802 74.7151H195.678V76.2151H197.442V77.0671H195.678V80.5471C195.678 80.9231 195.754 81.1791 195.906 81.3151C196.058 81.4431 196.326 81.5071 196.71 81.5071H197.382V82.3711H196.422ZM198.887 82.3711V76.2151H199.895V82.3711H198.887ZM199.391 74.9671C199.191 74.9671 199.023 74.9031 198.887 74.7751C198.759 74.6391 198.695 74.4711 198.695 74.2711C198.695 74.0711 198.759 73.9111 198.887 73.7911C199.023 73.6631 199.191 73.5991 199.391 73.5991C199.583 73.5991 199.747 73.6631 199.883 73.7911C200.019 73.9111 200.087 74.0711 200.087 74.2711C200.087 74.4711 200.019 74.6391 199.883 74.7751C199.747 74.9031 199.583 74.9671 199.391 74.9671ZM204.374 82.5151C203.798 82.5151 203.286 82.3831 202.838 82.1191C202.39 81.8551 202.038 81.4831 201.782 81.0031C201.534 80.5151 201.41 79.9471 201.41 79.2991C201.41 78.6431 201.538 78.0751 201.794 77.5951C202.05 77.1151 202.402 76.7431 202.85 76.4791C203.306 76.2071 203.822 76.0711 204.398 76.0711C204.974 76.0711 205.486 76.2071 205.934 76.4791C206.382 76.7431 206.73 77.1151 206.978 77.5951C207.234 78.0751 207.362 78.6431 207.362 79.2991C207.362 79.9471 207.234 80.5151 206.978 81.0031C206.722 81.4831 206.366 81.8551 205.91 82.1191C205.462 82.3831 204.95 82.5151 204.374 82.5151ZM204.374 81.6511C204.734 81.6511 205.062 81.5631 205.358 81.3871C205.654 81.2111 205.89 80.9471 206.066 80.5951C206.242 80.2431 206.33 79.8111 206.33 79.2991C206.33 78.7711 206.242 78.3351 206.066 77.9911C205.898 77.6391 205.666 77.3751 205.37 77.1991C205.074 77.0231 204.75 76.9351 204.398 76.9351C204.046 76.9351 203.722 77.0231 203.426 77.1991C203.13 77.3751 202.89 77.6391 202.706 77.9911C202.53 78.3351 202.442 78.7711 202.442 79.2991C202.442 79.8111 202.53 80.2431 202.706 80.5951C202.882 80.9471 203.114 81.2111 203.402 81.3871C203.698 81.5631 204.022 81.6511 204.374 81.6511ZM208.799 82.3711V76.2151H209.711L209.771 77.2471C209.955 76.8791 210.223 76.5911 210.575 76.3831C210.927 76.1751 211.331 76.0711 211.787 76.0711C212.259 76.0711 212.667 76.1631 213.011 76.3471C213.355 76.5311 213.623 76.8111 213.815 77.1871C214.007 77.5551 214.103 78.0231 214.103 78.5911V82.3711H213.095V78.6991C213.095 78.1151 212.959 77.6751 212.687 77.3791C212.415 77.0831 212.039 76.9351 211.559 76.9351C211.239 76.9351 210.943 77.0151 210.671 77.1751C210.407 77.3351 210.195 77.5671 210.035 77.8711C209.883 78.1671 209.807 78.5351 209.807 78.9751V82.3711H208.799ZM217.981 82.5151C217.453 82.5151 217.001 82.4311 216.625 82.2631C216.257 82.0951 215.969 81.8591 215.761 81.5551C215.553 81.2511 215.425 80.8951 215.377 80.4871H216.409C216.449 80.6951 216.529 80.8911 216.649 81.0751C216.777 81.2511 216.949 81.3951 217.165 81.5071C217.389 81.6111 217.665 81.6631 217.993 81.6631C218.273 81.6631 218.505 81.6231 218.689 81.5431C218.881 81.4551 219.021 81.3391 219.109 81.1951C219.205 81.0431 219.253 80.8791 219.253 80.7031C219.253 80.4471 219.193 80.2511 219.073 80.1151C218.961 79.9791 218.793 79.8751 218.569 79.8031C218.353 79.7231 218.085 79.6591 217.765 79.6111C217.461 79.5631 217.177 79.4991 216.913 79.4191C216.657 79.3311 216.429 79.2191 216.229 79.0831C216.037 78.9471 215.885 78.7791 215.773 78.5791C215.669 78.3711 215.617 78.1231 215.617 77.8351C215.617 77.4911 215.705 77.1871 215.881 76.9231C216.065 76.6591 216.321 76.4511 216.649 76.2991C216.985 76.1471 217.381 76.0711 217.837 76.0711C218.493 76.0711 219.021 76.2271 219.421 76.5391C219.821 76.8511 220.057 77.2991 220.129 77.8831H219.133C219.093 77.5871 218.957 77.3551 218.725 77.1871C218.501 77.0111 218.201 76.9231 217.825 76.9231C217.433 76.9231 217.137 76.9991 216.937 77.1511C216.737 77.3031 216.637 77.5031 216.637 77.7511C216.637 77.9271 216.685 78.0831 216.781 78.2191C216.885 78.3471 217.045 78.4591 217.261 78.5551C217.485 78.6431 217.765 78.7151 218.101 78.7711C218.525 78.8351 218.901 78.9271 219.229 79.0471C219.557 79.1671 219.817 79.3511 220.009 79.5991C220.201 79.8391 220.293 80.1791 220.285 80.6191C220.293 81.0031 220.201 81.3391 220.009 81.6271C219.817 81.9151 219.549 82.1351 219.205 82.2871C218.861 82.4391 218.453 82.5151 217.981 82.5151ZM222.132 82.4311C221.94 82.4311 221.776 82.3671 221.64 82.2391C221.512 82.1031 221.448 81.9391 221.448 81.7471C221.448 81.5551 221.512 81.3951 221.64 81.2671C221.776 81.1311 221.94 81.0631 222.132 81.0631C222.34 81.0631 222.504 81.1311 222.624 81.2671C222.752 81.3951 222.816 81.5551 222.816 81.7471C222.816 81.9391 222.752 82.1031 222.624 82.2391C222.504 82.3671 222.34 82.4311 222.132 82.4311ZM231.117 82.5151C230.333 82.5151 229.637 82.3351 229.029 81.9751C228.429 81.6071 227.961 81.0991 227.625 80.4511C227.289 79.7951 227.121 79.0351 227.121 78.1711C227.121 77.3151 227.289 76.5631 227.625 75.9151C227.961 75.2591 228.429 74.7471 229.029 74.3791C229.637 74.0111 230.333 73.8271 231.117 73.8271C231.925 73.8271 232.629 74.0111 233.229 74.3791C233.829 74.7471 234.293 75.2591 234.621 75.9151C234.957 76.5631 235.125 77.3151 235.125 78.1711C235.125 79.0351 234.957 79.7951 234.621 80.4511C234.293 81.0991 233.829 81.6071 233.229 81.9751C232.629 82.3351 231.925 82.5151 231.117 82.5151ZM231.129 81.6271C231.721 81.6271 232.237 81.4911 232.677 81.2191C233.125 80.9391 233.473 80.5431 233.721 80.0311C233.969 79.5111 234.093 78.8911 234.093 78.1711C234.093 77.4511 233.969 76.8351 233.721 76.3231C233.473 75.8031 233.125 75.4071 232.677 75.1351C232.237 74.8631 231.721 74.7271 231.129 74.7271C230.537 74.7271 230.017 74.8631 229.569 75.1351C229.121 75.4071 228.773 75.8031 228.525 76.3231C228.277 76.8351 228.153 77.4511 228.153 78.1711C228.153 78.8911 228.277 79.5111 228.525 80.0311C228.773 80.5431 229.121 80.9391 229.569 81.2191C230.017 81.4911 230.537 81.6271 231.129 81.6271ZM236.537 82.3711V76.2151H237.449L237.509 77.2471C237.693 76.8791 237.961 76.5911 238.313 76.3831C238.665 76.1751 239.069 76.0711 239.525 76.0711C239.997 76.0711 240.405 76.1631 240.749 76.3471C241.093 76.5311 241.361 76.8111 241.553 77.1871C241.745 77.5551 241.841 78.0231 241.841 78.5911V82.3711H240.833V78.6991C240.833 78.1151 240.697 77.6751 240.425 77.3791C240.153 77.0831 239.777 76.9351 239.297 76.9351C238.977 76.9351 238.681 77.0151 238.409 77.1751C238.145 77.3351 237.933 77.5671 237.773 77.8711C237.621 78.1671 237.545 78.5351 237.545 78.9751V82.3711H236.537ZM246.08 82.5151C245.52 82.5151 245.02 82.3831 244.58 82.1191C244.148 81.8471 243.808 81.4711 243.56 80.9911C243.312 80.5031 243.188 79.9391 243.188 79.2991C243.188 78.6511 243.312 78.0871 243.56 77.6071C243.808 77.1191 244.148 76.7431 244.58 76.4791C245.02 76.2071 245.528 76.0711 246.104 76.0711C246.704 76.0711 247.208 76.2071 247.616 76.4791C248.032 76.7431 248.348 77.0951 248.564 77.5351C248.78 77.9751 248.888 78.4551 248.888 78.9751C248.888 79.0551 248.888 79.1391 248.888 79.2271C248.888 79.3151 248.884 79.4151 248.876 79.5271H243.944V78.7471H247.892C247.876 78.1631 247.696 77.7151 247.352 77.4031C247.016 77.0831 246.592 76.9231 246.08 76.9231C245.744 76.9231 245.432 77.0031 245.144 77.1631C244.856 77.3231 244.62 77.5591 244.436 77.8711C244.26 78.1751 244.172 78.5591 244.172 79.0231V79.3591C244.172 79.8631 244.26 80.2871 244.436 80.6311C244.62 80.9751 244.856 81.2351 245.144 81.4111C245.432 81.5791 245.744 81.6631 246.08 81.6631C246.52 81.6631 246.872 81.5751 247.136 81.3991C247.4 81.2151 247.596 80.9591 247.724 80.6311H248.72C248.616 80.9911 248.444 81.3151 248.204 81.6031C247.972 81.8831 247.676 82.1071 247.316 82.2751C246.964 82.4351 246.552 82.5151 246.08 82.5151ZM256.195 82.5151C255.579 82.5151 255.043 82.4031 254.587 82.1791C254.131 81.9551 253.779 81.6431 253.531 81.2431C253.283 80.8431 253.159 80.3791 253.159 79.8511H254.215C254.215 80.1791 254.291 80.4831 254.443 80.7631C254.595 81.0351 254.815 81.2551 255.103 81.4231C255.399 81.5831 255.763 81.6631 256.195 81.6631C256.571 81.6631 256.891 81.6031 257.155 81.4831C257.427 81.3551 257.631 81.1831 257.767 80.9671C257.911 80.7511 257.983 80.5071 257.983 80.2351C257.983 79.9151 257.915 79.6551 257.779 79.4551C257.643 79.2471 257.455 79.0791 257.215 78.9511C256.983 78.8231 256.711 78.7111 256.399 78.6151C256.087 78.5111 255.759 78.3991 255.415 78.2791C254.735 78.0551 254.235 77.7751 253.915 77.4391C253.603 77.1031 253.447 76.6671 253.447 76.1311C253.447 75.6751 253.551 75.2751 253.759 74.9311C253.975 74.5871 254.279 74.3191 254.671 74.1271C255.071 73.9271 255.543 73.8271 256.087 73.8271C256.623 73.8271 257.087 73.9271 257.479 74.1271C257.879 74.3271 258.191 74.6031 258.415 74.9551C258.639 75.2991 258.751 75.6991 258.751 76.1551H257.695C257.695 75.9231 257.635 75.6951 257.515 75.4711C257.395 75.2471 257.211 75.0631 256.963 74.9191C256.723 74.7671 256.419 74.6911 256.051 74.6911C255.747 74.6831 255.475 74.7351 255.235 74.8471C255.003 74.9511 254.819 75.1031 254.683 75.3031C254.555 75.5031 254.491 75.7471 254.491 76.0351C254.491 76.3071 254.547 76.5271 254.659 76.6951C254.779 76.8631 254.947 77.0071 255.163 77.1271C255.387 77.2391 255.647 77.3431 255.943 77.4391C256.239 77.5351 256.567 77.6431 256.927 77.7631C257.335 77.8991 257.695 78.0671 258.007 78.2671C258.327 78.4591 258.575 78.7071 258.751 79.0111C258.935 79.3151 259.027 79.7031 259.027 80.1751C259.027 80.5751 258.919 80.9551 258.703 81.3151C258.495 81.6671 258.183 81.9551 257.767 82.1791C257.351 82.4031 256.827 82.5151 256.195 82.5151ZM260.432 85.0111V76.2151H261.344L261.44 77.1991C261.568 76.9991 261.728 76.8151 261.92 76.6471C262.12 76.4791 262.36 76.3431 262.64 76.2391C262.92 76.1271 263.24 76.0711 263.6 76.0711C264.176 76.0711 264.68 76.2151 265.112 76.5031C265.544 76.7831 265.88 77.1671 266.12 77.6551C266.368 78.1351 266.492 78.6871 266.492 79.3111C266.492 79.9271 266.368 80.4791 266.12 80.9671C265.88 81.4471 265.54 81.8271 265.1 82.1071C264.668 82.3791 264.164 82.5151 263.588 82.5151C263.1 82.5151 262.668 82.4151 262.292 82.2151C261.924 82.0151 261.64 81.7351 261.44 81.3751V85.0111H260.432ZM263.468 81.6391C263.86 81.6391 264.204 81.5431 264.5 81.3511C264.796 81.1591 265.028 80.8871 265.196 80.5351C265.372 80.1831 265.46 79.7711 265.46 79.2991C265.46 78.8191 265.372 78.4071 265.196 78.0631C265.028 77.7111 264.796 77.4391 264.5 77.2471C264.204 77.0471 263.86 76.9471 263.468 76.9471C263.068 76.9471 262.716 77.0471 262.412 77.2471C262.116 77.4391 261.884 77.7111 261.716 78.0631C261.556 78.4071 261.476 78.8191 261.476 79.2991C261.476 79.7711 261.556 80.1831 261.716 80.5351C261.884 80.8871 262.116 81.1591 262.412 81.3511C262.716 81.5431 263.068 81.6391 263.468 81.6391ZM269.912 82.5151C269.424 82.5151 269.016 82.4271 268.688 82.2511C268.368 82.0751 268.128 81.8431 267.968 81.5551C267.808 81.2671 267.728 80.9511 267.728 80.6071C267.728 80.1991 267.832 79.8511 268.04 79.5631C268.256 79.2751 268.556 79.0591 268.94 78.9151C269.324 78.7631 269.776 78.6871 270.296 78.6871H271.88C271.88 78.2951 271.828 77.9711 271.724 77.7151C271.62 77.4511 271.456 77.2551 271.232 77.1271C271.016 76.9911 270.74 76.9231 270.404 76.9231C270.028 76.9231 269.704 77.0191 269.432 77.2111C269.16 77.3951 268.992 77.6711 268.928 78.0391H267.896C267.944 77.6151 268.088 77.2591 268.328 76.9711C268.568 76.6751 268.872 76.4511 269.24 76.2991C269.608 76.1471 269.996 76.0711 270.404 76.0711C270.964 76.0711 271.428 76.1751 271.796 76.3831C272.164 76.5831 272.436 76.8671 272.612 77.2351C272.796 77.5951 272.888 78.0231 272.888 78.5191V82.3711H271.988L271.928 81.2911C271.848 81.4591 271.744 81.6191 271.616 81.7711C271.496 81.9151 271.352 82.0431 271.184 82.1551C271.024 82.2671 270.836 82.3551 270.62 82.4191C270.404 82.4831 270.168 82.5151 269.912 82.5151ZM270.056 81.6631C270.328 81.6631 270.576 81.6031 270.8 81.4831C271.032 81.3631 271.228 81.2031 271.388 81.0031C271.548 80.8031 271.668 80.5791 271.748 80.3311C271.836 80.0751 271.88 79.8111 271.88 79.5391V79.4671H270.38C269.996 79.4671 269.684 79.5151 269.444 79.6111C269.212 79.6991 269.044 79.8271 268.94 79.9951C268.836 80.1631 268.784 80.3511 268.784 80.5591C268.784 80.7831 268.832 80.9791 268.928 81.1471C269.024 81.3071 269.168 81.4351 269.36 81.5311C269.552 81.6191 269.784 81.6631 270.056 81.6631ZM274.494 82.3711V76.2151H275.406L275.49 77.3671C275.626 77.0871 275.802 76.8511 276.018 76.6591C276.242 76.4671 276.51 76.3231 276.822 76.2271C277.134 76.1231 277.486 76.0711 277.878 76.0711V77.1271H277.41C277.162 77.1271 276.922 77.1631 276.69 77.2351C276.466 77.2991 276.262 77.4071 276.078 77.5591C275.902 77.7031 275.762 77.9031 275.658 78.1591C275.554 78.4151 275.502 78.7351 275.502 79.1191V82.3711H274.494ZM282.749 82.3711L279.869 79.0231L282.533 76.2151H283.769L280.721 79.3831L280.733 78.6631L284.033 82.3711H282.749ZM279.029 82.3711V73.7311H280.037V82.3711H279.029ZM285.088 82.3711V73.7311H286.096V82.3711H285.088ZM290.412 82.5151C289.852 82.5151 289.352 82.3831 288.912 82.1191C288.48 81.8471 288.14 81.4711 287.892 80.9911C287.644 80.5031 287.52 79.9391 287.52 79.2991C287.52 78.6511 287.644 78.0871 287.892 77.6071C288.14 77.1191 288.48 76.7431 288.912 76.4791C289.352 76.2071 289.86 76.0711 290.436 76.0711C291.036 76.0711 291.54 76.2071 291.948 76.4791C292.364 76.7431 292.68 77.0951 292.896 77.5351C293.112 77.9751 293.22 78.4551 293.22 78.9751C293.22 79.0551 293.22 79.1391 293.22 79.2271C293.22 79.3151 293.216 79.4151 293.208 79.5271H288.276V78.7471H292.224C292.208 78.1631 292.028 77.7151 291.684 77.4031C291.348 77.0831 290.924 76.9231 290.412 76.9231C290.076 76.9231 289.764 77.0031 289.476 77.1631C289.188 77.3231 288.952 77.5591 288.768 77.8711C288.592 78.1751 288.504 78.5591 288.504 79.0231V79.3591C288.504 79.8631 288.592 80.2871 288.768 80.6311C288.952 80.9751 289.188 81.2351 289.476 81.4111C289.764 81.5791 290.076 81.6631 290.412 81.6631C290.852 81.6631 291.204 81.5751 291.468 81.3991C291.732 81.2151 291.928 80.9591 292.056 80.6311H293.052C292.948 80.9911 292.776 81.3151 292.536 81.6031C292.304 81.8831 292.008 82.1071 291.648 82.2751C291.296 82.4351 290.884 82.5151 290.412 82.5151Z" fill="#071E46"/>
<path fill-rule="evenodd" clip-rule="evenodd" d="M117.174 59.0448C118.464 59.7834 120.054 60.1919 121.974 60.2862C122.194 60.2862 122.446 60.2862 122.666 60.2862C124.601 60.2862 126.254 59.9405 127.623 59.2805C128.992 58.6047 129.668 57.7876 129.668 56.8604V47.6673H123.122C124.664 47.793 125.577 48.2959 125.797 49.1444V57.9133C125.797 58.4633 125.42 58.8876 124.79 59.2333C124.176 59.5948 123.405 59.7834 122.54 59.8148C122.257 59.8148 121.958 59.8148 121.706 59.7834C121.029 59.6891 120.431 59.5162 119.959 59.2333C119.314 58.8719 118.952 58.4476 118.952 57.8976V33.0525C118.968 32.5025 119.298 32.0311 119.975 31.6539C120.604 31.3239 121.187 31.1353 121.706 31.1039C122.241 31.0725 122.587 31.0725 122.745 31.0725C123.421 31.0725 124.114 31.1353 124.79 31.2767C125.656 31.4339 126.379 31.6696 126.977 31.9525C128.173 32.5339 128.756 33.2254 128.756 34.0425V35.2683C128.504 36.1326 127.607 36.6198 126.065 36.7612H128.315H129.652V34.0425C129.652 33.1154 128.992 32.2982 127.623 31.6382C126.143 30.9625 124.475 30.601 122.603 30.601H122.335C120.368 30.6324 118.669 31.0567 117.206 31.8425C115.868 32.5968 115.081 33.6654 115.081 34.8283V56.0432C115.066 57.2218 115.852 58.259 117.19 59.0448H117.174ZM145.152 31.8896C143.83 31.1039 142.021 30.6482 139.991 30.6482C137.961 30.6482 136.151 31.1039 134.845 31.8896C133.508 32.6439 132.689 33.7125 132.689 34.8754V45.6715C132.689 46.8501 133.508 47.8873 134.845 48.6573C136.151 49.4116 137.992 49.883 139.991 49.883C141.218 49.883 142.367 49.7102 143.421 49.3959V56.5461C143.421 57.0018 143.39 57.489 143.295 57.9762C143.185 58.5419 142.886 58.9505 142.414 59.2491C141.344 59.8305 140.4 59.8305 139.959 59.8305C139.519 59.8305 139.125 59.7834 138.7 59.6891C137.473 59.4376 136.545 58.8247 136.545 57.9447V55.4932C136.796 54.5975 137.678 54.0789 139.22 53.9375H132.705V56.8761C132.752 57.8504 133.413 58.6519 134.751 59.2962C135.758 59.7834 136.718 60.0662 137.615 60.1448C138.512 60.2391 139.22 60.2862 139.723 60.2862C140.479 60.2862 141.218 60.2234 141.973 60.1134C143.516 59.8619 144.759 59.3748 145.75 58.6362C146.757 57.8976 147.261 57.049 147.292 56.0747V34.8597C147.276 33.6968 146.474 32.6282 145.136 31.8739L145.152 31.8896ZM143.405 47.6358C143.311 48.1073 142.965 48.5001 142.398 48.8302C141.722 49.223 140.919 49.4116 139.975 49.4116C139.031 49.4116 138.228 49.2073 137.552 48.8302C136.875 48.453 136.545 47.9816 136.545 47.4315V33.0054C136.545 32.4554 136.907 32.0468 137.552 31.6853C138.228 31.2925 139.031 31.1039 139.975 31.1039C140.919 31.1039 141.722 31.3082 142.398 31.6853C143.028 32.0311 143.421 32.4554 143.421 33.0054V47.6358H143.405ZM160.62 59.3748C162.068 60.0348 163.704 60.3648 165.53 60.3648H165.907C167.906 60.3334 169.621 59.9091 171.053 59.1233C172.39 58.3376 173.209 57.2847 173.209 56.1218V31.9525C173.461 31.1196 174.31 30.7582 175.868 30.6639C174.169 30.6639 172.453 30.6639 170.754 30.6639H166.647C168.189 30.7739 169.055 31.1196 169.306 31.9682V57.9919C169.306 58.5419 168.929 58.9662 168.299 59.3276C167.607 59.7048 166.804 59.8934 165.892 59.8934C164.979 59.8934 164.192 59.7048 163.468 59.3276C162.823 58.9662 162.461 58.5419 162.461 57.9919V49.3016C162.461 48.4373 163.39 47.9187 165.215 47.7458H158.527L158.512 56.9233C158.575 57.8819 159.267 58.6833 160.636 59.3748H160.62ZM184.444 47.9816C185.986 48.0287 187.025 48.2644 187.56 48.673C188.095 49.0816 188.362 49.7888 188.362 50.8102V50.8888C188.378 49.8359 188.394 48.7673 188.394 47.7144C188.394 46.6615 188.394 45.5929 188.362 44.54V44.6186C188.362 45.6558 188.095 46.3629 187.591 46.8029C187.04 47.243 185.986 47.4787 184.444 47.5415L182.634 47.573L182.682 31.0567H186.6C188.221 31.1039 189.558 31.3867 190.644 31.9211C191.761 32.4868 192.359 33.1939 192.422 34.0111V30.5853H176.088C177.599 30.711 178.48 31.1825 178.748 32.0153V59.1548C178.496 59.9876 177.646 60.1919 176.104 60.2862H192.422V56.8604C192.359 57.6933 191.761 58.4005 190.628 58.9505C189.558 59.4848 188.221 59.7834 186.6 59.8305H182.619V47.9816H184.475H184.444ZM204.381 60.3019H205.231C206.631 55.9961 208.063 51.5174 209.558 46.8658L209.731 46.3158L213.775 60.3019H214.641C216.01 56.0432 217.457 51.6117 218.905 47.0072C220.62 41.6799 222.257 36.5883 223.846 31.7325C224.145 30.9939 224.932 30.711 226.348 30.6167H220.762C221.973 30.711 223.043 31.0253 223.043 31.591C223.043 31.6382 223.043 31.6853 223.028 31.7325C220.526 39.2441 218.103 46.7872 215.774 54.3303C214.468 49.5216 213.13 44.7286 211.793 39.9356C212.689 37.1069 213.586 34.3726 214.436 31.7325C214.751 30.9939 215.538 30.711 216.954 30.6167H202.996C204.334 30.7267 205.184 31.1039 205.545 31.7639L209.322 44.9015C208.346 48.0287 207.355 51.1717 206.379 54.3303C204.302 46.7872 202.21 39.2599 200.054 31.7325C200.038 31.701 200.038 31.6696 200.038 31.6539C200.038 31.4339 200.258 31.2139 200.699 31.0253C201.187 30.821 201.737 30.6796 202.367 30.6167H193.618C194.955 30.7267 195.805 31.1039 196.136 31.7639L204.397 60.3177L204.381 60.3019ZM209.464 31.7168C209.464 31.7168 209.448 31.6539 209.448 31.6225C209.448 31.4182 209.637 31.2296 210.03 31.0567C210.455 30.8524 210.974 30.711 211.572 30.6324C212.721 30.7267 213.665 31.041 213.665 31.5753C213.665 31.6225 213.665 31.6696 213.649 31.7168C212.894 33.9954 212.139 36.2583 211.399 38.5055C210.754 36.2426 210.125 33.9797 209.495 31.7168H209.464ZM233.917 47.9816H232.091L232.076 59.8305H236.057C237.678 59.7834 239.015 59.5005 240.085 58.9505C241.218 58.3847 241.816 57.6776 241.879 56.8604V60.2862H225.561C227.103 60.1919 227.969 59.9876 228.205 59.1548V32.0153C227.937 31.1825 227.056 30.711 225.545 30.5853H241.879V34.0111C241.816 33.1782 241.218 32.4711 240.101 31.9211C239.015 31.3867 237.678 31.1039 236.057 31.0567H232.139L232.091 47.573L233.901 47.5415C235.459 47.4787 236.497 47.2272 237.048 46.8029C237.567 46.3629 237.819 45.6558 237.819 44.6186V44.54C237.835 45.5929 237.851 46.6615 237.851 47.7144C237.851 48.7673 237.851 49.8359 237.819 50.8888V50.8102C237.819 49.773 237.552 49.0659 237.017 48.673C236.482 48.2644 235.443 48.0287 233.901 47.9816H233.917ZM259.44 60.3019V56.8761C259.393 57.709 258.795 58.4162 257.678 58.9662C256.592 59.5005 255.239 59.7991 253.634 59.8462H249.652V56.2318C249.668 48.1073 249.684 39.9984 249.715 31.9053C249.967 31.1196 250.848 30.6953 252.359 30.601H243.138C244.633 30.6953 245.514 31.1196 245.781 31.9053V59.1705C245.53 60.0034 244.649 60.1919 243.122 60.3019H259.456H259.44ZM277.032 60.3019V56.8761C276.985 57.709 276.403 58.4162 275.27 58.9662C274.184 59.5005 272.831 59.7991 271.226 59.8462H267.245V56.2318C267.261 48.1073 267.276 39.9984 267.308 31.9053C267.56 31.1196 268.441 30.6953 269.951 30.601H260.73C262.225 30.6953 263.106 31.1196 263.374 31.9053V59.1705C263.122 60.0034 262.241 60.1919 260.715 60.3019H277.032ZM286.647 47.9816C288.189 48.0287 289.228 48.2644 289.763 48.673C290.298 49.0816 290.565 49.7888 290.565 50.8102V50.8888C290.581 49.8359 290.597 48.7673 290.597 47.7144C290.597 46.6615 290.597 45.5929 290.565 44.54V44.6186C290.565 45.6558 290.298 46.3629 289.794 46.8029C289.243 47.243 288.189 47.4787 286.647 47.5415L284.837 47.573L284.885 31.0567H288.803C290.423 31.1039 291.761 31.3867 292.847 31.9211C293.964 32.4868 294.562 33.1939 294.625 34.0111V30.5853H278.291C279.802 30.711 280.683 31.1825 280.951 32.0153V59.1548C280.699 59.9876 279.849 60.1919 278.307 60.2862H294.625V56.8604C294.562 57.6933 293.964 58.4005 292.831 58.9505C291.761 59.4848 290.423 59.7834 288.803 59.8305H284.822V47.9816H286.678H286.647ZM302.32 31.0725H305.404C306.568 31.0725 308.96 31.2453 308.881 32.2196V46.4101C308.881 46.6929 308.693 46.9287 308.346 47.1644C308 47.4001 305.97 47.903 302.32 48.6887V31.0567V31.0725ZM306.914 48.1073L307.056 48.0758C307.764 48.1073 308.315 48.2958 308.708 48.6573C309.102 49.0187 309.306 49.443 309.306 49.883L309.196 59.139C308.929 59.9562 308.047 60.1762 306.505 60.2705H315.711C314.169 60.1762 313.303 59.9562 313.067 59.1233L313.161 52.0517C313.161 50.8259 312.611 49.7888 311.132 48.893C310.298 48.3901 309.322 48.0444 308.142 47.8558C309.275 47.6201 310.125 47.3844 310.722 47.1172C312.202 46.4572 312.752 45.7029 312.752 44.8072V33.7754C312.752 32.8797 312.202 32.1253 310.722 31.481C309.18 30.821 307.276 30.5696 305.404 30.5696H295.805C297.3 30.6639 298.197 31.0882 298.449 31.8896V59.139C298.197 59.9719 297.3 60.1762 295.805 60.2862H305.01C303.453 60.1919 302.571 59.9876 302.335 59.139V58.9662H302.32V49.113L306.899 48.0758L306.914 48.1073ZM323.437 43.6757L317.111 31.9053C316.702 31.2139 315.695 30.8682 314.483 30.601H323.138C322.619 30.6324 322.147 30.7739 321.753 31.0253C321.391 31.2296 321.202 31.4968 321.202 31.811V31.9053L326.993 42.7485L332.532 31.8896C332.532 31.8896 332.532 31.8268 332.532 31.7953C332.532 31.5439 332.217 30.7267 331.116 30.601H336.702C336.56 30.601 336.435 30.6324 336.293 30.6482C335.034 30.8524 333.807 31.4025 333.319 31.8896L327.339 43.5971L327.292 59.1233C327.56 59.9248 328.441 60.1762 329.936 60.2862H320.762C322.257 60.1919 323.169 59.9248 323.405 59.1233V43.6757H323.437Z" fill="#071E46"/>
<path fill-rule="evenodd" clip-rule="evenodd" d="M6.76054 55.7188C6.257 56.0017 5.69052 56.1274 5.12403 56.096C4.38446 56.0646 3.66062 55.7503 3.10987 55.1688L1.64646 53.6445C1.31601 53.2988 1.0013 52.953 0.733791 52.5759C0.466286 52.183 0.245987 51.7587 0.120102 51.2558C-0.0215192 50.7215 -0.00578354 50.3287 0.00995209 49.9044C0.00995209 49.7786 0.00995209 49.6686 0.00995209 49.4801V45.5356C0.00995209 45.3471 0.00995209 45.2214 0.00995209 45.1114C0.00995209 44.6713 -0.0215192 44.2942 0.120102 43.7442C0.245987 43.2413 0.466286 42.817 0.733791 42.4241C1.0013 42.047 1.31601 41.7012 1.64646 41.3555L3.10987 39.8312C3.66062 39.2497 4.40019 38.9354 5.1555 38.904C5.78493 38.8726 6.41436 39.0454 6.9651 39.4069C7.04378 38.3697 7.29555 37.364 7.68894 36.4211C8.16101 35.3053 8.83764 34.2839 9.73458 33.3881L33.637 9.48595C34.4553 8.66878 35.4151 8.00876 36.4537 7.53732C37.3349 7.14445 38.2633 6.8773 39.2389 6.75158C38.9557 6.24871 38.8298 5.68297 38.8612 5.11724C38.8927 4.37865 39.2074 3.65577 39.7896 3.10575L41.316 1.64428C41.6622 1.31427 42.0084 0.99997 42.386 0.732819C42.7794 0.465667 43.2043 0.245661 43.7078 0.119942C44.2428 -0.0214907 44.6205 -0.00577588 45.0611 0.0099389C45.187 0.0099389 45.2971 0.0099389 45.4859 0.0099389H49.4356C49.6244 0.0099389 49.7503 0.0099389 49.8604 0.0099389C50.301 0.0099389 50.6787 -0.0214907 51.2137 0.119942C51.7173 0.245661 52.1421 0.465667 52.5355 0.732819C52.9132 0.99997 53.2593 1.31427 53.6055 1.64428L55.1319 3.10575C55.7141 3.67148 56.0288 4.41008 56.0603 5.14867C56.0918 5.79298 55.9187 6.43728 55.5253 6.9873C56.5481 7.08159 57.5237 7.31731 58.4678 7.72589C59.5851 8.19734 60.6079 8.87307 61.4733 9.7531C69.294 17.5791 77.9486 25.6565 85.4072 33.7024C86.1783 34.5039 86.792 35.3839 87.2483 36.3582C87.6732 37.2854 87.9564 38.2754 88.0823 39.3283C88.6016 39.014 89.1838 38.8883 89.7503 38.904C90.5056 38.9354 91.2294 39.2497 91.7959 39.8312L93.2593 41.3555C93.5898 41.7012 93.9045 42.047 94.172 42.4241C94.4395 42.817 94.6598 43.2413 94.7857 43.7442C94.9273 44.2942 94.9116 44.6713 94.8958 45.1114C94.8958 45.2371 94.8958 45.3471 94.8958 45.5356V49.4801C94.8958 49.6686 94.8958 49.7944 94.8958 49.9044C94.8958 50.3444 94.9273 50.7215 94.7857 51.2558C94.6598 51.7587 94.4395 52.183 94.172 52.5759C93.9045 52.953 93.5898 53.2988 93.2593 53.6445L91.7959 55.1688C91.2452 55.7503 90.5056 56.0646 89.7503 56.096C89.1051 56.1274 88.46 55.9546 87.9092 55.5617C87.8148 56.5831 87.5788 57.5732 87.1854 58.5003C86.7133 59.6161 86.0367 60.6376 85.1555 61.5176C77.1932 69.5007 69.2625 77.5781 61.253 85.4983C60.4505 86.2684 59.5693 86.8969 58.6095 87.3527C57.6811 87.7927 56.6897 88.0598 55.6354 88.1856C55.9344 88.7041 56.076 89.2856 56.0603 89.8513C56.0288 90.6056 55.7141 91.3442 55.1319 91.8942L53.6055 93.3557C53.2593 93.6857 52.9132 94 52.5355 94.2672C52.1421 94.5343 51.7173 94.7543 51.2137 94.8801C50.6787 95.0215 50.301 95.0058 49.8604 94.9901C49.7346 94.9901 49.6244 94.9901 49.4356 94.9901H45.4859C45.2971 94.9901 45.1712 94.9901 45.0611 94.9901C44.6205 94.9901 44.2428 95.0215 43.7078 94.8801C43.2043 94.7543 42.7794 94.5343 42.386 94.2672C42.0084 94 41.6622 93.6857 41.316 93.3557L39.7896 91.8942C39.2074 91.3285 38.8927 90.5899 38.8612 89.8513C38.8298 89.2227 39.0029 88.5784 39.3648 88.0441C38.3262 87.9656 37.3191 87.7141 36.3907 87.3212C35.2735 86.8498 34.2507 86.1584 33.3695 85.2783L9.49854 61.3447C8.68029 60.5276 8.01939 59.5689 7.54732 58.5161C7.15393 57.636 6.88643 56.6931 6.77628 55.7345L6.76054 55.7188ZM29.3097 46.4471C35.2892 46.4471 33.1335 47.3114 40.246 40.1769C41.7566 38.6526 43.0312 37.364 44.5575 35.8553C47.0752 33.3724 46.3829 33.8753 46.3986 29.2237C44.589 30.1823 43.3144 32.0052 41.851 33.4667L31.2295 44.1056C30.0178 45.2999 29.9077 45.1271 29.3097 46.4471ZM48.3026 28.9408C48.3498 33.6553 47.6732 33.5296 49.7818 35.5568L57.744 43.5399C61.3475 47.1543 59.6795 46.6043 65.8951 46.5571C65.2184 45.4414 49.53 29.6637 48.3026 28.9408ZM29.0265 48.4743C29.5143 49.4801 29.3097 49.1343 30.1122 49.9515C32.7715 52.6859 44.8093 65.1163 46.4616 65.9806C46.4458 59.5375 47.4686 61.9733 40.246 54.7445C33.0076 47.5 35.4466 48.5057 29.0265 48.4743ZM48.3184 66.0434C50.0493 65.1477 61.1114 53.5188 63.6606 50.9887C64.0855 50.5644 64.4316 50.2815 64.825 49.8572C65.5961 48.9929 65.2499 49.5429 65.7534 48.49C59.5536 48.4743 61.8038 47.5 54.5182 54.7917C47.3113 62.0047 48.3184 59.5847 48.3184 66.0434ZM47.3585 57.5575C48.0981 57.1646 48.1138 57.0546 48.8062 56.3789C50.7574 54.3988 56.8628 48.7257 57.4608 47.1543L49.9234 39.7526C48.8062 38.6211 48.5544 38.1183 47.2483 37.4111L37.3349 47.2014L47.3742 57.5732L47.3585 57.5575ZM89.6244 41.8898L83.2357 47.4843L89.6244 53.0787L91.0878 51.5544C92.1264 50.4701 91.8746 50.4701 91.8746 49.4643V47.4843V45.5042C91.8746 44.4828 92.1264 44.4828 91.0878 43.4142L89.6244 41.8898ZM41.8667 5.25867L47.4529 11.6546L53.039 5.25867L51.5127 3.7972C50.4427 2.76003 50.4427 3.01146 49.4198 3.01146H47.4529H45.4859C44.4631 3.01146 44.4631 2.76003 43.3931 3.7972L41.8667 5.25867ZM5.29713 53.0787L11.6858 47.4843L5.29713 41.8898L3.83371 43.4142C2.79516 44.4985 3.04693 44.4985 3.04693 45.5042V47.4843V49.4643C3.04693 50.4858 2.79516 50.4858 3.83371 51.5544L5.29713 53.0787ZM53.0548 89.7256L47.4686 83.3297L41.8825 89.7256L43.4088 91.1871C44.4789 92.2243 44.4789 91.9728 45.5017 91.9728H47.4686H49.4356C50.4584 91.9728 50.4584 92.2243 51.5284 91.1871L53.0548 89.7256ZM84.9352 54.5716C84.9037 52.7959 84.1956 51.0358 82.8109 49.6529C81.8667 48.71 80.7338 48.0657 79.5221 47.7514C80.2145 47.5786 80.781 47.3114 81.253 46.9814C81.9611 46.4628 82.4962 46.0385 82.8581 45.6928C83.3773 45.1742 83.8022 44.5928 84.1956 43.9642C84.9667 42.6284 85.2499 41.2141 85.0925 39.7212C84.9509 38.2126 84.3372 36.8925 83.2515 35.7768L59.349 11.8589C58.043 10.5546 56.2963 9.89453 54.5339 9.94168C52.7558 9.97311 51.0091 10.6803 49.6244 12.0632C48.6645 13.0375 48.0036 14.2161 47.7047 15.4576C47.3427 14.1375 46.6661 12.9589 45.659 11.9375L45.4702 11.7489C44.0855 10.4446 42.4647 9.7531 40.5764 9.65881C38.814 9.61167 37.0674 10.2717 35.7613 11.576L11.8589 35.4782C10.5214 36.8139 9.90767 38.5111 9.93914 40.3026C9.98635 42.0155 10.6 43.5556 11.8117 44.9699C11.9533 45.1428 12.1107 45.2999 12.268 45.4571C13.1335 46.3214 14.0933 46.95 15.1162 47.3114C13.936 47.6886 12.8817 48.3329 11.969 49.2443L11.7802 49.4329C10.4899 50.8158 9.78178 52.4502 9.68737 54.3359C9.64016 56.096 10.3011 57.8403 11.5914 59.1446L35.4623 83.0783C36.7999 84.414 38.4993 85.0269 40.2774 85.0112C41.9926 84.964 43.5347 84.3354 44.9352 83.1411C45.1083 82.9997 45.2656 82.8425 45.423 82.6854C46.2727 81.8368 46.8707 80.9253 47.2483 79.9353C47.4214 80.4696 47.6417 80.941 47.925 81.3182C48.4442 82.0411 48.8534 82.5754 49.2153 82.9211C49.7346 83.4397 50.301 83.8797 50.9462 84.2569C52.2837 85.0269 53.6842 85.3255 55.1791 85.1526C56.6897 85.0112 57.9958 84.3983 59.113 83.2983L82.9997 59.3489C84.3058 58.0446 84.9667 56.3003 84.9037 54.5402L84.9352 54.5716ZM76.0445 47.7514C75.3679 47.5314 74.77 47.1543 74.2035 46.6514L70.9147 43.3199L75.3522 38.8726C74.471 40.0983 74.4552 41.2927 75.2892 42.4556L78.043 45.2214C79.0343 46.2114 80.3404 46.2742 81.4733 45.7242C81.851 45.5357 82.1814 45.3156 82.4804 45.0171C82.7794 44.7185 83.4088 44.0742 83.4875 42.6913C83.4718 42.0313 83.2043 41.3555 82.6535 40.6484C82.1657 40.0355 81.6464 39.4697 81.1272 38.9512L73.0705 30.8738C72.7243 31.9424 72.1264 32.9167 71.2924 33.7653C69.9391 35.1168 68.1453 35.8553 66.3986 35.8868C64.6205 35.9182 62.8896 35.3053 61.5678 33.9853L49.4041 21.8063C48.5544 20.9577 47.9879 19.9206 47.7047 18.8205C47.4844 19.512 47.1067 20.1249 46.5717 20.6592L43.5033 23.7235L42.6063 22.7964L41.6779 21.8849L41.0642 21.272C42.2601 22.1678 43.4403 22.2306 44.5733 21.4135L45.958 20.0306C46.8707 19.1191 47.2483 17.9405 47.091 16.4633C47.0123 15.7404 46.7605 14.9861 46.3671 14.2161C46.0682 13.6032 45.659 13.0532 45.2027 12.5975C45.0925 12.4875 44.8408 12.2675 44.4474 11.9217C44.0697 11.5917 43.4718 11.4189 42.6535 11.356C41.7566 11.3246 41.0013 11.6389 40.3876 12.2518L12.4096 40.2712C11.7959 40.8841 11.5756 41.6227 11.5914 42.4556C11.5914 43.0999 11.7959 43.697 12.1579 44.2628C12.3152 44.467 12.504 44.6713 12.6929 44.8756C13.3223 45.4414 14.0776 45.7242 14.8959 45.7557C15.7299 45.7871 16.4537 45.5671 17.0831 44.9542L26.9651 35.0696C27.7833 33.9539 27.7204 32.7752 26.8077 31.5809L31.2609 36.0439L20.9069 46.4157C20.4505 46.8714 19.9313 47.2171 19.349 47.4529C19.8369 47.6729 20.2775 47.9872 20.6708 48.3957L23.7393 51.4601L22.8109 52.3559L21.8982 53.2988L21.2845 53.9116C22.1815 52.7173 22.2287 51.5387 21.4262 50.4072L20.0414 49.0243C19.1287 48.1129 17.9486 47.7357 16.4852 47.8772C15.7613 47.9557 15.0217 48.2072 14.2507 48.6157C13.637 48.9143 13.0863 49.3229 12.6299 49.7786C12.5198 49.8886 12.2995 50.1401 11.969 50.533C11.6386 50.9101 11.4655 51.523 11.4183 52.3244C11.3868 53.2202 11.7015 53.9745 12.3152 54.5874L40.2774 82.6225C40.8911 83.2354 41.615 83.4711 42.4647 83.4397C43.1099 83.4397 43.7078 83.2354 44.2743 82.874C44.4789 82.7168 44.6834 82.5282 44.888 82.3397C45.4387 81.7111 45.7377 80.9568 45.7534 80.1396C45.7849 79.291 45.5646 78.5681 44.9509 77.9552L35.0847 68.0706C33.9675 67.2535 32.7873 67.3163 31.5914 68.2278L36.0446 63.7648L46.3986 74.1366C46.8549 74.5923 47.1854 75.0951 47.4214 75.6766C47.6417 75.2052 47.9407 74.7494 48.3341 74.3408L51.6543 71.0407L56.0918 75.488C54.8644 74.608 53.6842 74.5923 52.5198 75.4252L49.766 78.191C48.7747 79.181 48.7117 80.501 49.2625 81.6325C49.4513 82.0097 49.6716 82.3554 49.9706 82.6382C50.2696 82.9368 50.899 83.5811 52.2837 83.644C52.9446 83.6283 53.6213 83.3611 54.3294 82.7954C54.9431 82.3082 55.5095 81.7896 56.0131 81.2711L64.0697 73.1937C62.9997 72.8479 62.0241 72.2508 61.1901 71.4022C59.8368 70.0507 59.113 68.2435 59.0815 66.4992C59.0501 64.7077 59.6637 62.9948 60.9855 61.659L73.1492 49.4801C73.9832 48.6472 75.006 48.0814 76.1075 47.7986L76.0445 47.7514ZM66.0367 71.135L82.5276 54.6502C83.1413 54.0373 83.3459 53.2988 83.3144 52.4659C83.2829 51.5701 82.9682 50.8001 82.3231 50.1558C81.6779 49.5115 80.9069 49.1972 80.0099 49.1658C79.1917 49.1186 78.4678 49.3543 77.8541 49.9672L61.615 66.232C61.0013 66.8449 60.6866 67.6149 60.718 68.4949C60.7495 69.3907 61.0642 70.1607 61.7094 70.805C62.3545 71.4493 63.1256 71.7636 64.0225 71.795C64.7621 71.795 65.4387 71.6065 66.0524 71.135H66.0367ZM71.0721 28.8937L54.6126 12.3775C53.9989 11.7646 53.2593 11.5446 52.4411 11.5917C51.5442 11.6232 50.7731 11.9375 50.128 12.5818C49.4828 13.2261 49.1681 13.9961 49.1366 14.8918C49.0894 15.7247 49.3254 16.4319 49.9391 17.0605L66.1783 33.3253C66.792 33.9381 67.5473 34.2524 68.4442 34.221C69.3412 34.1896 70.1122 33.8753 70.7574 33.231C71.4025 32.5867 71.7172 31.8166 71.7487 30.9209C71.7487 30.1823 71.5599 29.4909 71.0878 28.8937H71.0721ZM5.17124 55.4674C5.75346 55.4988 6.33568 55.326 6.82348 54.9174C6.87069 54.8702 6.94937 54.8388 7.02805 54.8231C7.20114 54.8231 7.35849 54.9488 7.35849 55.1217C7.42144 56.206 7.68894 57.2589 8.12954 58.2332C8.57014 59.2075 9.18383 60.1032 9.93914 60.8733L33.8101 84.8069C34.6441 85.6398 35.604 86.2841 36.6268 86.7241C37.6811 87.1641 38.814 87.4155 39.9942 87.4313C40.0729 87.4313 40.1358 87.4627 40.1988 87.5098C40.3247 87.6198 40.3404 87.8241 40.2302 87.9498L40.0729 88.1384C39.648 88.6256 39.4592 89.2227 39.4907 89.8199C39.5221 90.4171 39.7582 90.9985 40.2145 91.4385L41.7409 92.9C42.0713 93.2143 42.386 93.5129 42.7322 93.7486C43.0627 93.9843 43.4403 94.1729 43.8494 94.2829C44.3058 94.4086 44.6362 94.3929 45.0296 94.3772C45.187 94.3772 45.3443 94.3772 45.4702 94.3772H49.4198C49.5457 94.3772 49.7188 94.3772 49.8604 94.3772C50.2538 94.3772 50.5843 94.4086 51.0406 94.2829C51.4655 94.1729 51.8274 93.9843 52.1578 93.7486C52.504 93.5129 52.8187 93.2143 53.1492 92.9L54.6756 91.4385C55.1319 90.9985 55.3837 90.4171 55.3994 89.8199C55.4309 89.2227 55.2263 88.6256 54.8172 88.1384H54.8014C54.8014 88.1384 54.7228 87.997 54.707 87.9184C54.707 87.7455 54.8329 87.5884 55.006 87.5884L55.4151 87.557C56.4379 87.447 57.4136 87.1955 58.3105 86.7712C59.2074 86.3469 60.0414 85.7655 60.781 85.0426L84.6834 61.0776C85.5017 60.2604 86.1311 59.3018 86.5717 58.2646C87.0123 57.2117 87.2641 56.0803 87.2798 54.9331C87.2798 54.8545 87.3113 54.7917 87.3585 54.7288C87.4686 54.6031 87.6732 54.5874 87.7991 54.6974L88.0194 54.8859C88.4914 55.3102 89.1051 55.4988 89.6873 55.4674C90.2853 55.436 90.8675 55.2002 91.3081 54.7288L92.7715 53.2045C93.0862 52.8745 93.3695 52.5602 93.6213 52.2144C93.8573 51.8844 94.0304 51.5073 94.1405 51.083C94.2664 50.6272 94.2507 50.2972 94.2349 49.9044C94.2349 49.7472 94.2349 49.5901 94.2349 49.4643V45.5199C94.2349 45.3942 94.2349 45.2214 94.2349 45.0799C94.2349 44.687 94.2664 44.357 94.1405 43.9013C94.0304 43.477 93.8416 43.1156 93.6213 42.7698C93.3852 42.4241 93.0862 42.0941 92.7715 41.7798L91.3081 40.2555C90.8675 39.7998 90.2853 39.5483 89.6873 39.5169C89.0894 39.4855 88.4914 39.6898 88.0194 40.0983H88.0036C88.0036 40.0983 87.8777 40.1926 87.7991 40.2083C87.626 40.2083 87.4686 40.0826 87.4686 39.9098L87.4371 39.4855C87.327 38.4483 87.0752 37.4897 86.6504 36.5939C86.2255 35.6982 85.659 34.8653 84.9194 34.1267L60.9855 10.1931C60.1673 9.37595 59.2074 8.74736 58.1846 8.30734C57.1303 7.86733 56.0131 7.61589 54.8486 7.58446C54.77 7.58446 54.707 7.55303 54.6441 7.50589C54.5182 7.39588 54.5025 7.19159 54.6126 7.06587L54.8014 6.84587C55.2263 6.35871 55.4151 5.76155 55.3837 5.16439C55.3522 4.56722 55.1161 3.98578 54.6598 3.54576L53.1335 2.08429C52.803 1.76999 52.4883 1.47141 52.1421 1.23569C51.8117 0.99997 51.434 0.811393 51.0249 0.701389C50.5685 0.575671 50.2381 0.591386 49.8447 0.6071C49.6874 0.6071 49.53 0.6071 49.4041 0.6071H45.4545C45.3286 0.6071 45.1555 0.6071 45.0139 0.6071C44.6205 0.6071 44.29 0.575671 43.8337 0.701389C43.4088 0.811393 43.0469 0.99997 42.7165 1.23569C42.3703 1.47141 42.0556 1.76999 41.7251 2.08429L40.1988 3.54576C39.7424 3.98578 39.5064 4.55151 39.4749 5.13296C39.4435 5.7144 39.6165 6.31156 40.0257 6.78301C40.0729 6.83015 40.1044 6.90873 40.1201 6.9873C40.1201 7.16016 39.9942 7.31731 39.8211 7.31731C38.7511 7.38017 37.6968 7.64732 36.7212 8.08733C35.7456 8.52735 34.8486 9.14022 34.0933 9.91025L10.1909 33.8124C9.35692 34.6453 8.7275 35.6039 8.2869 36.6411C7.8463 37.694 7.59453 38.8412 7.57879 40.0198C7.57879 40.0983 7.54732 40.1612 7.50012 40.2241C7.38997 40.3498 7.1854 40.3655 7.05952 40.2555L6.87069 40.0983C6.39862 39.674 5.78493 39.4855 5.20271 39.5169C4.60476 39.5483 4.02254 39.784 3.58194 40.2555L2.11853 41.7798C1.80381 42.1098 1.52057 42.4241 1.2688 42.7698C1.03277 43.0999 0.859676 43.477 0.749527 43.9013C0.623642 44.357 0.639378 44.687 0.655113 45.0799C0.655113 45.2371 0.655113 45.3942 0.655113 45.5199V49.4643C0.655113 49.5901 0.655113 49.7629 0.655113 49.9044C0.655113 50.2972 0.623642 50.6272 0.749527 51.083C0.859676 51.5073 1.0485 51.8687 1.2688 52.2144C1.50484 52.5602 1.80381 52.8902 2.11853 53.2045L3.58194 54.7288C4.02254 55.1845 4.58902 55.436 5.17124 55.4517V55.4674Z" fill="#071E46"/>
</svg>
