<svg width="100" height="73" viewBox="0 0 100 73" fill="none" xmlns="http://www.w3.org/2000/svg">
<path fill-rule="evenodd" clip-rule="evenodd" d="M20.0526 42.6425C19.6763 42.8539 19.2529 42.9478 18.8295 42.9244C18.2768 42.9009 17.7358 42.666 17.3242 42.2314L16.2305 41.0922C15.9835 40.8338 15.7483 40.5754 15.5484 40.2936C15.3485 39.9999 15.1838 39.6828 15.0898 39.307C14.9839 38.9076 14.9957 38.6141 15.0074 38.297C15.0074 38.2029 15.0074 38.1207 15.0074 37.9799V35.0319C15.0074 34.891 15.0074 34.797 15.0074 34.7148C15.0074 34.3859 14.9839 34.1041 15.0898 33.693C15.1838 33.3172 15.3485 33.0001 15.5484 32.7064C15.7483 32.4246 15.9835 32.1662 16.2305 31.9078L17.3242 30.7686C17.7358 30.334 18.2886 30.0991 18.8531 30.0756C19.3235 30.0521 19.7939 30.1813 20.2055 30.4515C20.2643 29.6763 20.4525 28.9247 20.7465 28.22C21.0993 27.3861 21.605 26.6227 22.2753 25.9532L40.1392 8.0895C40.7508 7.47877 41.4681 6.98549 42.2443 6.63315C42.9029 6.33953 43.5968 6.13988 44.3259 6.04592C44.1143 5.67009 44.0202 5.24727 44.0436 4.82446C44.0672 4.27246 44.3024 3.73221 44.7375 3.32114L45.8783 2.22888C46.137 1.98224 46.3957 1.74735 46.678 1.54769C46.972 1.34802 47.2895 1.1836 47.6658 1.08964C48.0657 0.983939 48.3479 0.995683 48.6772 1.00743C48.7713 1.00743 48.8536 1.00743 48.9947 1.00743H51.9466C52.0877 1.00743 52.1818 1.00743 52.2641 1.00743C52.5934 1.00743 52.8757 0.983939 53.2755 1.08964C53.6519 1.1836 53.9694 1.34802 54.2634 1.54769C54.5456 1.74735 54.8043 1.98224 55.063 2.22888L56.2038 3.32114C56.639 3.74395 56.8741 4.29595 56.8977 4.84795C56.9212 5.32949 56.7919 5.81102 56.4978 6.22209C57.2623 6.29256 57.9914 6.46873 58.697 6.77408C59.532 7.12643 60.2964 7.63145 60.9432 8.28916C66.7881 14.1381 73.2563 20.1749 78.8306 26.1881C79.4069 26.7871 79.8656 27.4448 80.2066 28.173C80.5242 28.8659 80.7358 29.6058 80.8299 30.3927C81.218 30.1578 81.6531 30.0639 82.0765 30.0756C82.641 30.0991 83.182 30.334 83.6053 30.7686L84.699 31.9078C84.946 32.1662 85.1812 32.4246 85.3812 32.7064C85.5811 33.0001 85.7457 33.3172 85.8398 33.693C85.9457 34.1041 85.9339 34.3859 85.9221 34.7148C85.9221 34.8088 85.9221 34.891 85.9221 35.0319V37.9799C85.9221 38.1207 85.9221 38.2148 85.9221 38.297C85.9221 38.6258 85.9457 38.9076 85.8398 39.307C85.7457 39.6828 85.5811 39.9999 85.3812 40.2936C85.1812 40.5754 84.946 40.8338 84.699 41.0922L83.6053 42.2314C83.1938 42.666 82.641 42.9009 82.0765 42.9244C81.5943 42.9478 81.1122 42.8187 80.7005 42.525C80.63 43.2884 80.4536 44.0284 80.1596 44.7213C79.8068 45.5552 79.3011 46.3186 78.6425 46.9763C72.6918 52.9426 66.7646 58.9794 60.7785 64.8987C60.1788 65.4743 59.5202 65.944 58.8029 66.2846C58.109 66.6135 57.3681 66.8131 56.5801 66.9071C56.8036 67.2946 56.9094 67.7292 56.8977 68.152C56.8741 68.7157 56.639 69.2678 56.2038 69.6788L55.063 70.7711C54.8043 71.0177 54.5456 71.2526 54.2634 71.4523C53.9694 71.6519 53.6519 71.8163 53.2755 71.9104C52.8757 72.016 52.5934 72.0043 52.2641 71.9926C52.1701 71.9926 52.0877 71.9926 51.9466 71.9926H48.9947C48.8536 71.9926 48.7595 71.9926 48.6772 71.9926C48.3479 71.9926 48.0657 72.016 47.6658 71.9104C47.2895 71.8163 46.972 71.6519 46.678 71.4523C46.3957 71.2526 46.137 71.0177 45.8783 70.7711L44.7375 69.6788C44.3024 69.256 44.0672 68.704 44.0436 68.152C44.0202 67.6822 44.1495 67.2007 44.42 66.8014C43.6438 66.7427 42.8911 66.5547 42.1973 66.2611C41.3623 65.9088 40.5979 65.392 39.9393 64.7343L22.0989 46.8471C21.4874 46.2364 20.9934 45.5199 20.6406 44.7331C20.3466 44.0753 20.1467 43.3706 20.0644 42.6542L20.0526 42.6425ZM36.9051 35.7131C41.374 35.7131 39.7629 36.359 45.0786 31.0269C46.2076 29.8877 47.1602 28.9247 48.3009 27.7971C50.1825 25.9415 49.6651 26.3173 49.6768 22.8409C48.3244 23.5573 47.3718 24.9197 46.2781 26.0119L38.3399 33.9631C37.4344 34.8557 37.3521 34.7266 36.9051 35.7131ZM51.0998 22.6294C51.1351 26.1529 50.6294 26.059 52.2053 27.574L58.156 33.5403C60.8492 36.2416 59.6026 35.8306 64.2479 35.7953C63.7422 34.9615 52.0172 23.1697 51.0998 22.6294ZM36.6935 37.2282C37.0581 37.9799 36.9051 37.7214 37.5049 38.3322C39.4924 40.3758 48.4891 49.6659 49.7239 50.3118C49.7121 45.4964 50.4765 47.3169 45.0786 41.9143C39.6688 36.5 41.4917 37.2516 36.6935 37.2282ZM51.1116 50.3587C52.4053 49.6893 60.6727 40.9983 62.5779 39.1073C62.8955 38.7902 63.1541 38.5788 63.4481 38.2617C64.0244 37.6157 63.7657 38.0268 64.142 37.2399C59.5085 37.2282 61.1902 36.5 55.7452 41.9496C50.359 47.3403 51.1116 45.5317 51.1116 50.3587ZM50.3942 44.0166C50.947 43.723 50.9587 43.6408 51.4762 43.1358C52.9345 41.6559 57.4975 37.416 57.9444 36.2416L52.3112 30.7098C51.4762 29.8642 51.288 29.4884 50.3119 28.9599L42.9029 36.2768L50.406 44.0284L50.3942 44.0166ZM81.9824 32.3071L77.2077 36.4883L81.9824 40.6693L83.0761 39.5301C83.8523 38.7197 83.6642 38.7197 83.6642 37.968V36.4883V35.0084C83.6642 34.245 83.8523 34.245 83.0761 33.4464L81.9824 32.3071ZM46.2898 4.93016L50.4648 9.71028L54.6397 4.93016L53.499 3.83791C52.6993 3.06276 52.6993 3.25067 51.9348 3.25067H50.4648H48.9947C48.2303 3.25067 48.2303 3.06276 47.4306 3.83791L46.2898 4.93016ZM18.9589 40.6693L23.7336 36.4883L18.9589 32.3071L17.8652 33.4464C17.089 34.2568 17.2772 34.2568 17.2772 35.0084V36.4883V37.968C17.2772 38.7315 17.089 38.7315 17.8652 39.5301L18.9589 40.6693ZM54.6515 68.0581L50.4765 63.278L46.3017 68.0581L47.4424 69.1503C48.2421 69.9255 48.2421 69.7375 49.0065 69.7375H50.4765H51.9466C52.711 69.7375 52.711 69.9255 53.5107 69.1503L54.6515 68.0581ZM78.4779 41.7851C78.4543 40.458 77.9251 39.1425 76.8902 38.109C76.1846 37.4043 75.3379 36.9228 74.4323 36.6879C74.9498 36.5587 75.3732 36.359 75.7259 36.1124C76.2551 35.7248 76.655 35.4077 76.9255 35.1493C77.3135 34.7618 77.6311 34.3272 77.9251 33.8574C78.5014 32.8591 78.7131 31.8021 78.5954 30.6864C78.4896 29.5589 78.031 28.5723 77.2195 27.7384L59.3556 9.86296C58.3795 8.88817 57.0741 8.39486 55.7569 8.4301C54.428 8.45359 53.1226 8.98212 52.0877 10.0157C51.3703 10.7438 50.8764 11.6247 50.653 12.5525C50.3824 11.5659 49.8768 10.6851 49.1241 9.92171L48.983 9.78075C47.9481 8.80596 46.7368 8.28916 45.3255 8.21869C44.0084 8.18346 42.703 8.67674 41.7269 9.65153L23.863 27.5153C22.8634 28.5135 22.4047 29.782 22.4282 31.1209C22.4635 32.401 22.9221 33.5521 23.8277 34.6091C23.9335 34.7383 24.0512 34.8557 24.1687 34.9732C24.8156 35.6191 25.5329 36.0889 26.2974 36.359C25.4153 36.6409 24.6274 37.1225 23.9453 37.8036L23.8041 37.9446C22.8398 38.9781 22.3106 40.1996 22.24 41.6089C22.2047 42.9244 22.6987 44.228 23.663 45.2028L41.5034 63.0901C42.5031 64.0883 43.7732 64.5464 45.1021 64.5347C46.3839 64.4994 47.5365 64.0296 48.5831 63.137C48.7125 63.0313 48.8301 62.9139 48.9477 62.7964C49.5827 62.1622 50.0297 61.481 50.3119 60.7411C50.4412 61.1404 50.6059 61.4927 50.8176 61.7746C51.2057 62.3149 51.5115 62.7142 51.782 62.9726C52.1701 63.3602 52.5934 63.689 53.0756 63.9709C54.0752 64.5464 55.1219 64.7696 56.2391 64.6403C57.3681 64.5347 58.3442 64.0766 59.1792 63.2545L77.0313 45.3555C78.0075 44.3807 78.5014 43.0771 78.4543 41.7616L78.4779 41.7851ZM71.8332 36.6879C71.3276 36.5235 70.8807 36.2416 70.4573 35.8658L67.9994 33.3759L71.3158 30.0521C70.6573 30.9682 70.6455 31.8609 71.2688 32.73L73.3269 34.797C74.0677 35.5369 75.0439 35.5839 75.8906 35.1728C76.1728 35.0319 76.4198 34.8674 76.6432 34.6444C76.8667 34.4212 77.3371 33.9397 77.3959 32.9061C77.3842 32.4129 77.1843 31.9078 76.7726 31.3793C76.408 30.9213 76.0199 30.4984 75.6319 30.1109L69.6106 24.0741C69.3518 24.8727 68.905 25.6009 68.2817 26.2351C67.2703 27.2452 65.9296 27.7971 64.6242 27.8207C63.2953 27.8441 62.0017 27.3861 61.0138 26.3995L51.9231 17.2973C51.288 16.6631 50.8646 15.888 50.653 15.0658C50.4883 15.5826 50.2061 16.0407 49.8062 16.44L47.513 18.7302L46.8426 18.0373L46.1487 17.3561L45.6901 16.898C46.5839 17.5675 47.4659 17.6144 48.3127 17.0038L49.3476 15.9702C50.0297 15.289 50.3119 14.4082 50.1943 13.3041C50.1355 12.7639 49.9473 12.2001 49.6533 11.6247C49.4299 11.1666 49.1241 10.7555 48.7831 10.415C48.7007 10.3328 48.5126 10.1683 48.2186 9.9099C47.9363 9.66327 47.4894 9.53412 46.8779 9.48711C46.2076 9.46365 45.6431 9.69854 45.1844 10.1566L24.2745 31.0974C23.8159 31.5555 23.6512 32.1075 23.663 32.73C23.663 33.2115 23.8159 33.6577 24.0864 34.0806C24.204 34.2332 24.3451 34.3859 24.4863 34.5386C24.9567 34.9615 25.5212 35.1728 26.1327 35.1964C26.756 35.2198 27.297 35.0554 27.7674 34.5973L35.1529 27.2099C35.7644 26.3761 35.7173 25.4951 35.0352 24.6026L38.3634 27.9381L30.6252 35.6896C30.2841 36.0302 29.896 36.2886 29.4608 36.4648C29.8255 36.6292 30.1548 36.8641 30.4487 37.1694L32.742 39.4596L32.0481 40.1291L31.366 40.8338L30.9074 41.2918C31.5777 40.3992 31.613 39.5184 31.0133 38.6727L29.9783 37.6392C29.2962 36.9581 28.4142 36.6761 27.3205 36.7819C26.7795 36.8406 26.2267 37.0285 25.6505 37.3338C25.1919 37.557 24.7803 37.8624 24.4392 38.2029C24.3569 38.2852 24.1923 38.4731 23.9453 38.7668C23.6983 39.0486 23.569 39.5067 23.5337 40.1056C23.5101 40.7751 23.7453 41.3388 24.204 41.7969L45.1021 62.7494C45.5607 63.2075 46.1017 63.3836 46.7368 63.3602C47.219 63.3602 47.6658 63.2075 48.0892 62.9374C48.2421 62.8199 48.395 62.679 48.5479 62.5381C48.9594 62.0683 49.1829 61.5045 49.1946 60.8938C49.2182 60.2596 49.0535 59.7193 48.5949 59.2612L41.2212 51.8738C40.3862 51.2631 39.5042 51.3101 38.6104 51.9913L41.9386 48.6558L49.6768 56.4073C50.0179 56.7479 50.2649 57.1237 50.4412 57.5583C50.6059 57.206 50.8294 56.8653 51.1234 56.5599L53.6048 54.0936L56.9212 57.4173C56.0039 56.7596 55.1219 56.7479 54.2516 57.3704L52.1935 59.4375C51.4527 60.1774 51.4056 61.1639 51.8172 62.0095C51.9583 62.2914 52.123 62.5498 52.3464 62.7612C52.5699 62.9843 53.0403 63.4659 54.0752 63.5129C54.5691 63.5011 55.0749 63.3014 55.6041 62.8787C56.0627 62.5145 56.486 62.1269 56.8624 61.7394L62.8837 55.7026C62.084 55.4442 61.3548 54.998 60.7315 54.3637C59.7201 53.3537 59.1792 52.003 59.1556 50.6994C59.1322 49.3605 59.5908 48.0803 60.5786 47.082L69.6694 37.9799C70.2927 37.3574 71.0571 36.9345 71.8803 36.7232L71.8332 36.6879ZM64.3537 54.164L76.6785 41.8438C77.1372 41.3858 77.2901 40.8338 77.2665 40.2113C77.243 39.5419 77.0078 38.9664 76.5257 38.4849C76.0435 38.0033 75.4673 37.7684 74.7969 37.745C74.1854 37.7097 73.6443 37.8858 73.1857 38.3439L61.0491 50.4997C60.5904 50.9578 60.3552 51.5332 60.3787 52.1909C60.4022 52.8604 60.6374 53.4359 61.1196 53.9174C61.6018 54.3989 62.1781 54.6338 62.8484 54.6573C63.4011 54.6573 63.9068 54.5164 64.3655 54.164H64.3537ZM68.117 22.5942L55.8157 10.2505C55.3571 9.79249 54.8043 9.62807 54.1928 9.66327C53.5225 9.68681 52.9462 9.92171 52.4641 10.4032C51.9819 10.8848 51.7467 11.4602 51.7231 12.1297C51.6879 12.7521 51.8642 13.2807 52.3229 13.7505L64.4596 25.9063C64.9182 26.3643 65.4827 26.5992 66.153 26.5757C66.8234 26.5522 67.3996 26.3173 67.8818 25.8358C68.364 25.3543 68.5992 24.7787 68.6227 24.1093C68.6227 23.5573 68.4816 23.0406 68.1288 22.5942H68.117ZM18.8648 42.4546C19.3 42.478 19.7351 42.3489 20.0997 42.0435C20.1349 42.0082 20.1937 41.9848 20.2525 41.973C20.3819 41.973 20.4995 42.067 20.4995 42.1962C20.5465 43.0066 20.7465 43.7935 21.0758 44.5216C21.4051 45.2498 21.8637 45.9192 22.4282 46.4948L40.2686 64.382C40.8919 65.0045 41.6093 65.486 42.3737 65.8148C43.1617 66.1437 44.0084 66.3316 44.8904 66.3434C44.9492 66.3434 44.9962 66.3668 45.0433 66.402C45.1374 66.4843 45.1491 66.6369 45.0668 66.7309L44.9492 66.8718C44.6317 67.236 44.4906 67.6822 44.5141 68.1285C44.5376 68.5749 44.714 69.0094 45.055 69.3382L46.1958 70.4305C46.4428 70.6654 46.678 70.8886 46.9367 71.0647C47.1837 71.2409 47.4659 71.3818 47.7717 71.464C48.1127 71.558 48.3597 71.5463 48.6537 71.5345C48.7713 71.5345 48.8889 71.5345 48.983 71.5345H51.9348C52.0289 71.5345 52.1583 71.5345 52.2641 71.5345C52.5581 71.5345 52.8051 71.558 53.1461 71.464C53.4637 71.3818 53.7342 71.2409 53.9811 71.0647C54.2398 70.8886 54.475 70.6654 54.722 70.4305L55.8628 69.3382C56.2038 69.0094 56.392 68.5749 56.4038 68.1285C56.4273 67.6822 56.2744 67.236 55.9686 66.8718H55.9568C55.9568 66.8718 55.8981 66.7662 55.8863 66.7074C55.8863 66.5782 55.9804 66.4608 56.1097 66.4608L56.4155 66.4373C57.1799 66.3551 57.9091 66.1671 58.5794 65.85C59.2497 65.5329 59.873 65.0984 60.4258 64.5581L78.2897 46.6475C78.9013 46.0367 79.3717 45.3203 79.7009 44.5451C80.0302 43.7582 80.2184 42.9126 80.2302 42.0553C80.2302 41.9965 80.2537 41.9496 80.289 41.9026C80.3713 41.8086 80.5242 41.7969 80.6183 41.8791L80.7829 42.02C81.1357 42.3371 81.5943 42.478 82.0294 42.4546C82.4764 42.4311 82.9115 42.2549 83.2408 41.9026L84.3345 40.7634C84.5697 40.5167 84.7814 40.2818 84.9696 40.0234C85.146 39.7768 85.2753 39.4949 85.3576 39.1778C85.4517 38.8372 85.44 38.5905 85.4282 38.297C85.4282 38.1795 85.4282 38.0621 85.4282 37.968V35.0201C85.4282 34.9262 85.4282 34.797 85.4282 34.6913C85.4282 34.3976 85.4517 34.151 85.3576 33.8104C85.2753 33.4933 85.1342 33.2232 84.9696 32.9648C84.7931 32.7064 84.5697 32.4598 84.3345 32.2249L83.2408 31.0857C82.9115 30.7451 82.4764 30.5571 82.0294 30.5337C81.5826 30.5102 81.1357 30.6629 80.7829 30.9682H80.7711C80.7711 30.9682 80.677 31.0387 80.6183 31.0504C80.4889 31.0504 80.3713 30.9565 80.3713 30.8273L80.3477 30.5102C80.2654 29.735 80.0772 29.0186 79.7598 28.3491C79.4422 27.6797 79.0188 27.0572 78.4661 26.5052L60.5786 8.618C59.9671 8.00729 59.2497 7.5375 58.4853 7.20864C57.6974 6.87979 56.8624 6.69187 55.9921 6.66838C55.9334 6.66838 55.8863 6.64489 55.8393 6.60966C55.7452 6.52745 55.7334 6.37477 55.8157 6.28081L55.9568 6.11639C56.2744 5.7523 56.4155 5.306 56.392 4.8597C56.3685 4.4134 56.192 3.97885 55.851 3.64999L54.7103 2.55773C54.4633 2.32283 54.2281 2.09969 53.9694 1.92352C53.7224 1.74735 53.4401 1.60641 53.1344 1.5242C52.7933 1.43024 52.5464 1.44198 52.2523 1.45373C52.1348 1.45373 52.0171 1.45373 51.9231 1.45373H48.9713C48.8772 1.45373 48.7478 1.45373 48.642 1.45373C48.3479 1.45373 48.1009 1.43024 47.7599 1.5242C47.4424 1.60641 47.1719 1.74735 46.925 1.92352C46.6662 2.09969 46.431 2.32283 46.184 2.55773L45.0433 3.64999C44.7022 3.97885 44.5258 4.40165 44.5023 4.83621C44.4788 5.27076 44.6081 5.71706 44.9139 6.06941C44.9492 6.10464 44.9728 6.16337 44.9845 6.22209C44.9845 6.35128 44.8904 6.46872 44.761 6.46872C43.9613 6.5157 43.1734 6.71536 42.4443 7.04421C41.7151 7.37307 41.0447 7.83111 40.4803 8.40661L22.6164 26.2703C21.9931 26.8928 21.5227 27.6092 21.1934 28.3844C20.8641 29.1713 20.6759 30.0287 20.6641 30.9095C20.6641 30.9682 20.6406 31.0152 20.6054 31.0622C20.523 31.1562 20.3701 31.1679 20.2761 31.0857L20.1349 30.9682C19.7821 30.6511 19.3235 30.5102 18.8883 30.5337C18.4415 30.5571 18.0063 30.7333 17.677 31.0857L16.5833 32.2249C16.3481 32.4715 16.1364 32.7064 15.9483 32.9648C15.7719 33.2115 15.6425 33.4933 15.5602 33.8104C15.4661 34.151 15.4779 34.3976 15.4896 34.6913C15.4896 34.8088 15.4896 34.9262 15.4896 35.0201V37.968C15.4896 38.0621 15.4896 38.1912 15.4896 38.297C15.4896 38.5905 15.4661 38.8372 15.5602 39.1778C15.6425 39.4949 15.7836 39.765 15.9483 40.0234C16.1247 40.2818 16.3481 40.5285 16.5833 40.7634L17.677 41.9026C18.0063 42.2431 18.4297 42.4311 18.8648 42.4428V42.4546Z" fill="#071E46"/>
</svg>
